/* XPM */
static char *_ecad4044d0e42fcbda69276f2e9d192[] = {
/* columns rows colors chars-per-pixel */
"64 64 2 1 ",
"  c #19CCDC",
". c None",
/* pixels */
"................................................................",
"................................................................",
"................................................................",
"....................................              ..............",
"...................................                .  ..........",
"...................................                .  ..........",
"..................................    .........     .  .........",
"..................................   .              .  .........",
".................................   ..               .  ........",
".................................   .                   ........",
"................................   ..                 .  .......",
"................................   .                      ......",
"...............................   ..                   .  ......",
"..............................    .                     .  .....",
"..............................                          .  .....",
"..............................                          .   ....",
"..............................                          .   ....",
".......... ...              ..                          .  .....",
".........  ..                ..                        .   .....",
"........  ..                  ..                       .  ......",
"........  .      ..........   ..                      .   ......",
".......  ..               .    ..                     .  .......",
"......   .                ..   ..                    .  ........",
"......  .                  .    ..                   .  ........",
".....   .                   .   ..                  .  .........",
".....  .                    .    ..                .   .........",
"....  .                      .   ..                .  ..........",
"....  .                      .    ..              .   ..........",
"...  ..                           ..............................",
"...  .                            ..............................",
"....  .                           ....           ...............",
"....  .                          ...                ............",
".....  .                        ...                 ............",
".....  .                        ..                   ...........",
"......  .                      ...                    ..........",
"......  ..                    ...                     ..........",
".......  .                    ...                     ..........",
".......  .                   ...       .........................",
"........  .                  ...      ..........................",
"........  ..                ...       ..........................",
".............              ...       ...........................",
"..............................       ...........................",
".............................       ............................",
".............................       ............................",
".............................      .............................",
".............................       ............................",
".............................       ............................",
"..............................       ...........................",
"..............................       ...........................",
"...............................       ..........................",
"................................      ..........................",
"................................       .........................",
".................................                     ..........",
".................................                     ..........",
"..................................                   ...........",
"..................................                   ...........",
"...................................                 ............",
"....................................                ............",
"......................................            ..............",
"................................................................",
"................................................................",
"................................................................",
"................................................................",
"................................................................"
};
