/* XPM */
static char *_53f31ab908a4afeb9584b5fc634ee44[] = {
/* columns rows colors chars-per-pixel */
"128 128 2 1 ",
"  c #19CCDC",
". c None",
/* pixels */
"................................................................................................................................",
"................................................................................................................................",
"................................................................................................................................",
"................................................................................................................................",
"................................................................................................................................",
"................................................................................................................................",
"..........................................................................                         .............................",
"........................................................................                            ...  .......................",
".......................................................................                              ..   ......................",
".......................................................................                               ..   .....................",
"......................................................................                                ..    ....................",
"......................................................................                                 ..    ...................",
".....................................................................      ...................         ..    ...................",
".....................................................................     ....................          ..    ..................",
"....................................................................      ...                           ..    ..................",
"...................................................................      ....                            ..    .................",
"...................................................................      ...                             ...   .................",
"..................................................................      ...                               ..    ................",
"..................................................................      ...                                ..   ................",
".................................................................      ...                                 ..    ...............",
".................................................................      ...                                  ..   ...............",
"................................................................      ...                                   ..    ..............",
"................................................................      ...                                    ..    .............",
"...............................................................      ...                                     ..    .............",
"...............................................................     ....                                      ..    ............",
"..............................................................      ...                                       ..    ............",
".............................................................      ....                                        ..    ...........",
".............................................................      ...                                          ..   ...........",
"............................................................       ..                                           ..    ..........",
"............................................................                                                    ...   ..........",
"............................................................                                                     ..    .........",
"............................................................                                                     ..    .........",
"............................................................                                                    ...    .........",
"............................................................                                                    ...    .........",
".....................  .....                           ......                                                   ..    ..........",
"...................    ....                             .....                                                  ...    ..........",
"..................    ....                               .....                                                 ..    ...........",
"..................    ...                                 ....                                                ...    ...........",
".................    ...                                   ....                                              ...    ............",
"................    ....          ...................      .....                                             ..     ............",
"................    ...           ...................       ....                                            ...    .............",
"...............    ....           ....................      .....                                           ..     .............",
"...............    ...                             ...       ....                                          ...    ..............",
"..............    ...                               ...      .....                                         ..    ...............",
".............     ...                               ....      ....                                        ...    ...............",
".............    ...                                 ...      .....                                       ..    ................",
"............    ...                                  ....      ....                                      ...    ................",
"............    ...                                   ...       ....                                     ..    .................",
"...........    ...                                     ...      ....                                    ...    .................",
"...........    ..                                      ...       ....                                  ...    ..................",
"..........    ...                                       ...      ....                                  ...    ..................",
".........    ...                                        ...       ....                                ...    ...................",
".........    ..                                          ...      .....                               ..     ...................",
"........    ...                                          ....      ....                              ...    ....................",
"........    ..                                            ...      .....                            ...    .....................",
".......    ...                                            ...       .....                          ....   ......................",
".......    ..                                                       ................................... ........................",
".......   ...                                                       ............................................................",
".......   ...                                                       ............................................................",
".......   ...                                                       ............................................................",
".......    ...                                                     .............................................................",
"........   ...                                                     .......                          ............................",
".........   ..                                                    ......                              ..........................",
".........    ..                                                  ......                                .........................",
"..........   ..                                                  .....                                  ........................",
"..........    ..                                                ......                                   .......................",
"...........   ...                                              ......                                    .......................",
"...........    ..                                              ......                                     ......................",
"............   ...                                            ......                                       .....................",
"............    ..                                           .......                                       .....................",
".............   ...                                          ......                                         ....................",
".............    ...                                        ......                                          ....................",
"..............   ...                                       .......                                           ...................",
"..............    ..                                       ......              .................................................",
"...............   ...                                     .......             ..................................................",
"...............    ..                                     ......             ...................................................",
"................   ...                                   .......             ...................................................",
"................    ...                                  ......             ....................................................",
".................   ...                                 .......             ....................................................",
"..................   ...                               .......             .....................................................",
"...................  ....                             .......              .....................................................",
"...........................                         .........             ......................................................",
"............................................................             .......................................................",
"............................................................             .......................................................",
"...........................................................             ........................................................",
"...........................................................             ........................................................",
"..........................................................             .........................................................",
"..........................................................             .........................................................",
"..........................................................            ..........................................................",
"..........................................................            ..........................................................",
"..........................................................             .........................................................",
"..........................................................             .........................................................",
"...........................................................             ........................................................",
"...........................................................             ........................................................",
"............................................................             .......................................................",
"............................................................             .......................................................",
".............................................................             ......................................................",
".............................................................              .....................................................",
"..............................................................             .....................................................",
"...............................................................            .....................................................",
"...............................................................             ....................................................",
"................................................................             ...................................................",
"................................................................             ...................................................",
".................................................................             ..................................................",
".................................................................              .................................................",
"..................................................................                                          ....................",
"..................................................................                                          ....................",
"...................................................................                                         ....................",
"...................................................................                                        .....................",
"....................................................................                                      ......................",
"....................................................................                                      ......................",
".....................................................................                                    .......................",
"......................................................................                                   .......................",
"......................................................................                                  ........................",
".......................................................................                                .........................",
"........................................................................                               .........................",
"..........................................................................                           ...........................",
"................................................................................................................................",
"................................................................................................................................",
"................................................................................................................................",
"................................................................................................................................",
"................................................................................................................................",
"................................................................................................................................",
"................................................................................................................................",
"................................................................................................................................",
"................................................................................................................................",
"................................................................................................................................",
"................................................................................................................................"
};
