/* XPM */
static char *_55ba650e37d4c82cd4fd1af6def47d8[] = {
/* columns rows colors chars-per-pixel */
"16 16 2 1 ",
"  c #19CCDC",
". c None",
/* pixels */
"................",
"........      ..",
"........      ..",
".......        .",
"..             .",
"..            ..",
".             ..",
".            ...",
".             ..",
"..     .  ......",
".......  .......",
".......  .......",
"........  ......",
"........      ..",
".........    ...",
"................"
};
