/* XPM */
static char *_bc49468c0e24a91cf78ad35eebf5621[] = {
/* columns rows colors chars-per-pixel */
"32 32 2 1 ",
"  c #19CCDC",
". c None",
/* pixels */
"................................",
"...................      .......",
".................          .....",
".................  .        ....",
"................  .         ....",
"................             ...",
"...............              ...",
"...............               ..",
".......       .               ..",
"....                         ...",
"....           .             ...",
"...             .           ....",
"..              .           ....",
"..               .         .....",
"..               ...............",
"..               .        ......",
"..              .         ......",
"...            ..          .....",
"...            .    ............",
"....          ..   .............",
".......      ..    .............",
"...............   ..............",
"..............    ..............",
"...............   ..............",
"...............    .............",
"................   .............",
"................           .....",
".................          .....",
".................         ......",
"................................",
"................................",
"................................"
};
